# Blender v2.78 (sub 0) OBJ File: 'klimt.blend'
# www.blender.org
mtllib klimt.mtl
o Cube.002
v -0.218624 8.864955 -2.471961
v -0.218624 0.102653 -2.471961
v -0.172979 0.102654 -2.471961
v -0.172979 8.864957 -2.471961
v -0.218624 8.864953 -2.320831
v -0.218624 0.102650 -2.320832
v -0.172979 0.102654 -2.320832
v -0.172979 8.864956 -2.320831
v -0.218624 8.864955 2.304951
v -0.218624 0.102653 2.304951
v -0.172979 0.102654 2.304951
v -0.172979 8.864957 2.304951
v -0.218624 8.864953 2.456080
v -0.218624 0.102650 2.456080
v -0.172979 0.102654 2.456080
v -0.172979 8.864956 2.456080
v -0.218624 8.728658 -2.458433
v -0.218624 8.728658 2.458433
v -0.172979 8.728658 2.458433
v -0.172979 8.728658 -2.458434
v -0.218624 8.879786 -2.458432
v -0.218624 8.879786 2.458435
v -0.172979 8.879786 2.458432
v -0.172979 8.879786 -2.458433
v -0.218624 0.080090 -2.458433
v -0.218624 0.080090 2.458433
v -0.172979 0.080090 2.458433
v -0.172979 0.080090 -2.458434
v -0.218624 0.231218 -2.458432
v -0.218624 0.231218 2.458435
v -0.172979 0.231218 2.458432
v -0.172979 0.231218 -2.458433
vt 0.9554 0.3923
vt 0.9552 0.3412
vt 0.9554 0.3925
vt 0.9545 0.3922
vt 0.9543 0.3413
vt 0.9543 0.3413
vt 0.9552 0.3413
vt 0.9545 0.3924
vt 0.9301 0.3878
vt 0.9301 0.3427
vt 0.9299 0.3880
vt 0.9294 0.3877
vt 0.9294 0.3428
vt 0.9295 0.3428
vt 0.9302 0.3428
vt 0.9292 0.3878
vt 0.9553 0.3915
vt 0.9292 0.3871
vt 0.9553 0.3917
vt 0.9553 0.3924
vt 0.9292 0.3879
vt 0.9293 0.3877
vt 0.9293 0.3870
vt 0.9553 0.3926
vt 0.9552 0.3411
vt 0.9294 0.3427
vt 0.9552 0.3411
vt 0.9552 0.3420
vt 0.9294 0.3434
vt 0.9295 0.3435
vt 0.9295 0.3427
vt 0.9552 0.3419
vn 0.0000 -0.0000 1.0000
vn 0.0000 0.0000 -1.0000
vn 1.0000 -0.0000 0.0000
vn -0.0000 1.0000 0.0000
vn -1.0000 -0.0000 0.0000
vn 0.0001 -1.0000 -0.0000
vn 0.0000 -1.0000 0.0000
vn -0.0001 1.0000 -0.0000
vn -0.0001 -0.0000 -1.0000
usemtl Material
s off
f 1/1/1 3/2/1 4/3/1
f 5/4/2 7/5/2 6/6/2
f 5/4/3 2/7/3 1/1/3
f 6/6/4 3/2/4 2/7/4
f 7/5/5 4/3/5 3/2/5
f 1/1/6 8/8/6 5/4/6
f 9/9/1 11/10/1 12/11/1
f 13/12/2 15/13/2 14/14/2
f 13/12/3 10/15/3 9/9/3
f 14/14/4 11/10/4 10/15/4
f 15/13/5 12/11/5 11/10/5
f 9/9/6 16/16/6 13/12/6
f 17/17/4 19/18/4 20/19/4
f 21/20/7 23/21/7 22/22/7
f 21/20/3 18/23/3 17/17/3
f 22/22/2 19/18/2 18/23/2
f 19/18/5 24/24/5 20/19/5
f 17/17/1 24/24/1 21/20/1
f 25/25/4 27/26/4 28/27/4
f 29/28/7 31/29/7 30/30/7
f 29/28/3 26/31/3 25/25/3
f 30/30/2 27/26/2 26/31/2
f 27/26/5 32/32/5 28/27/5
f 25/25/1 32/32/1 29/28/1
f 1/1/1 2/7/1 3/2/1
f 5/4/2 8/8/2 7/5/2
f 5/4/3 6/6/3 2/7/3
f 6/6/8 7/5/8 3/2/8
f 7/5/5 8/8/5 4/3/5
f 1/1/7 4/3/7 8/8/7
f 9/9/1 10/15/1 11/10/1
f 13/12/2 16/16/2 15/13/2
f 13/12/3 14/14/3 10/15/3
f 14/14/8 15/13/8 11/10/8
f 15/13/5 16/16/5 12/11/5
f 9/9/7 12/11/7 16/16/7
f 17/17/4 18/23/4 19/18/4
f 21/20/7 24/24/7 23/21/7
f 21/20/3 22/22/3 18/23/3
f 22/22/9 23/21/9 19/18/9
f 19/18/5 23/21/5 24/24/5
f 17/17/1 20/19/1 24/24/1
f 25/25/4 26/31/4 27/26/4
f 29/28/7 32/32/7 31/29/7
f 29/28/3 30/30/3 26/31/3
f 30/30/9 31/29/9 27/26/9
f 27/26/5 31/29/5 32/32/5
f 25/25/1 28/27/1 32/32/1
o Plane
v -0.230680 8.796604 2.353702
v -0.230681 0.259025 2.380314
v -0.230680 8.781847 -2.380314
v -0.230681 0.244269 -2.353702
vt 0.0578 0.0076
vt 0.6086 0.9937
vt 0.0609 0.9954
vt 0.6055 0.0059
vn 1.0000 -0.0000 0.0000
usemtl None
s off
f 34/33/10 35/34/10 33/35/10
f 34/33/10 36/36/10 35/34/10
o Cube
v -0.282736 0.107841 -2.458433
v -0.282736 0.107841 2.458433
v -0.237091 0.107841 2.458433
v -0.237091 0.107841 -2.458434
v -0.282736 8.933031 -2.458432
v -0.282736 8.933031 2.458435
v -0.237091 8.933031 2.458432
v -0.237091 8.933031 -2.458433
vt 0.9097 0.7020
vt 0.9230 0.7153
vt 0.9097 0.7153
vt 0.9364 0.6886
vt 0.9230 0.7020
vt 0.9230 0.6886
vt 0.9230 0.6886
vt 0.9364 0.6753
vt 0.9364 0.6886
vt 0.9097 0.6753
vt 0.9230 0.6886
vt 0.9097 0.6886
vt 0.9364 0.6886
vt 0.9497 0.6753
vt 0.9497 0.6886
vt 0.9230 0.6886
vt 0.9097 0.7020
vt 0.9097 0.6886
vt 0.9230 0.7020
vt 0.9364 0.7020
vt 0.9230 0.6753
vt 0.9230 0.6753
vt 0.9364 0.6753
vt 0.9230 0.7020
vn 0.0000 1.0000 0.0000
vn 0.0000 -1.0000 0.0000
vn 1.0000 0.0000 0.0000
vn -0.0000 0.0000 -1.0000
vn -1.0000 0.0000 0.0000
vn 0.0000 -0.0000 1.0000
usemtl Material
s off
f 37/37/11 39/38/11 40/39/11
f 41/40/12 43/41/12 42/42/12
f 41/43/13 38/44/13 37/45/13
f 42/46/14 39/47/14 38/48/14
f 43/49/15 40/50/15 39/51/15
f 37/52/16 44/53/16 41/54/16
f 37/37/11 38/55/11 39/38/11
f 41/40/12 44/56/12 43/41/12
f 41/43/13 42/57/13 38/44/13
f 42/46/14 43/58/14 39/47/14
f 43/49/15 44/59/15 40/50/15
f 37/52/16 40/60/16 44/53/16
