# Blender v2.78 (sub 0) OBJ File: 'walls_spain.blend'
# www.blender.org
mtllib walls_spain_panorama.mtl
o Cube.007
v -8.468697 -0.061590 -13.712812
v -6.809506 -0.061590 -13.712813
v -6.809506 -0.061590 -12.929454
v -8.468698 -0.061590 -12.929455
v -8.468697 9.326185 -13.712813
v -6.809505 9.326185 -13.712812
v -6.809506 9.326185 -12.929454
v -8.468697 9.326185 -12.929455
vt 0.7058 0.3941
vt 0.5319 0.3948
vt 0.6978 0.3950
vt 0.6824 0.5666
vt 0.5309 0.5728
vt 0.6892 0.5716
vt 0.5337 0.3939
vt 0.5294 0.5677
vn 0.0000 -1.0000 0.0000
vn 0.0000 1.0000 0.0000
vn -0.0000 -0.0000 -1.0000
vn 1.0000 -0.0000 0.0000
vn -0.0000 0.0000 1.0000
vn -1.0000 0.0000 0.0000
usemtl Material
s off
f 1/1/1 3/2/1 4/3/1
f 8/4/2 6/5/2 5/6/2
f 5/6/3 2/7/3 1/1/3
f 6/5/4 3/2/4 2/7/4
f 7/8/5 4/3/5 3/2/5
f 1/1/6 8/4/6 5/6/6
f 1/1/1 2/7/1 3/2/1
f 8/4/2 7/8/2 6/5/2
f 5/6/3 6/5/3 2/7/3
f 6/5/4 7/8/4 3/2/4
f 7/8/5 8/4/5 4/3/5
f 1/1/6 4/3/6 8/4/6
o Cube.006
v -7.236033 0.182596 7.994237
v -7.236033 0.182596 13.307293
v -8.019392 0.182596 13.307292
v -8.019392 0.182596 7.994236
v -7.236033 9.484175 7.994238
v -7.236034 9.484175 13.307294
v -8.019392 9.484175 13.307291
v -8.019392 9.484175 7.994236
vt 0.0464 0.4659
vt 0.9751 0.4689
vt 0.0194 0.4393
vt 0.0386 0.6380
vt 0.9807 0.6401
vt 0.9583 0.6555
vt 0.9533 0.4925
vt 0.0108 0.6208
vn 0.0000 -1.0000 0.0000
vn 0.0000 1.0000 0.0000
vn 1.0000 0.0000 0.0000
vn 0.0000 -0.0000 1.0000
vn -1.0000 0.0000 0.0000
vn 0.0000 0.0000 -1.0000
usemtl Material
s off
f 9/9/7 11/10/7 12/11/7
f 13/12/8 15/13/8 14/14/8
f 13/12/9 10/15/9 9/9/9
f 14/14/10 11/10/10 10/15/10
f 15/13/11 12/11/11 11/10/11
f 9/9/12 16/16/12 13/12/12
f 9/9/7 10/15/7 11/10/7
f 13/12/8 16/16/8 15/13/8
f 13/12/9 14/14/9 10/15/9
f 14/14/10 15/13/10 11/10/10
f 15/13/11 16/16/11 12/11/11
f 9/9/12 12/11/12 16/16/12
o Cube.005
v -8.203980 9.155621 14.379124
v -8.203980 9.547085 14.379124
v -8.203980 9.155621 -14.326590
v -8.203980 9.547085 -14.326590
v 9.607581 9.155621 14.379124
v 9.607581 9.547085 14.379124
v 9.607581 9.155621 -14.326590
v 9.607581 9.547085 -14.326590
v -8.203980 9.155621 0.026267
v -8.203980 9.351353 14.379124
v -8.203980 9.547085 0.026267
v -8.203980 9.351353 -14.326590
v 0.701800 9.155621 -14.326590
v 0.701800 9.547085 -14.326590
v 9.607581 9.351353 -14.326590
v 9.607581 9.155621 0.026267
v 9.607581 9.547085 0.026267
v 9.607581 9.351353 14.379124
v 0.701800 9.155621 14.379124
v 0.701800 9.547085 14.379124
v 0.701800 9.547085 0.026267
v 0.701800 9.155621 0.026267
v 0.701800 9.351353 14.379124
v 9.607581 9.351353 0.026267
v 0.701800 9.351353 -14.326590
v -8.203980 9.351353 0.026267
vt 0.0171 0.5050
vt 0.0142 0.0654
vt 0.0142 0.5058
vt 0.4980 0.0690
vt 0.9858 0.0654
vt 0.5000 0.0654
vt 0.9790 0.5050
vt 0.9858 0.9462
vt 0.9858 0.5058
vt 0.4980 0.9410
vt 0.0142 0.9462
vt 0.5000 0.9462
vt 0.9926 0.5066
vt 0.5019 0.9514
vt 0.5019 0.5066
vt 0.4980 0.5050
vt 0.9790 0.9410
vt 0.9790 0.0690
vt 0.0171 0.0690
vt 0.0113 0.9514
vt 0.0113 0.5066
vt 0.5019 0.0618
vt 0.0113 0.0618
vt 0.9926 0.0618
vt 0.9926 0.9514
vt 0.0171 0.9410
vn -1.0000 0.0000 0.0000
vn 0.0000 0.0000 -1.0000
vn 1.0000 0.0000 0.0000
vn 0.0000 0.0000 1.0000
vn 0.0000 -1.0000 0.0000
vn 0.0000 1.0000 0.0000
usemtl None
s off
f 27/17/13 28/18/13 42/19/13
f 30/20/14 31/21/14 41/22/14
f 33/23/15 34/24/15 40/25/15
f 36/26/16 26/27/16 39/28/16
f 32/29/17 35/30/17 38/31/17
f 27/17/18 36/26/18 37/32/18
f 37/32/18 22/33/18 33/23/18
f 30/20/18 33/23/18 24/34/18
f 20/35/18 37/32/18 30/20/18
f 38/31/17 17/36/17 25/37/17
f 29/38/17 25/37/17 19/39/17
f 23/40/17 38/31/17 29/38/17
f 39/28/16 17/36/16 35/30/16
f 34/24/16 35/30/16 21/41/16
f 22/33/16 39/28/16 34/24/16
f 40/25/15 21/41/15 32/29/15
f 31/21/15 32/29/15 23/40/15
f 24/34/15 40/25/15 31/21/15
f 41/22/14 23/40/14 29/38/14
f 28/18/14 29/38/14 19/39/14
f 20/35/14 41/22/14 28/18/14
f 42/19/13 19/39/13 25/37/13
f 26/27/13 25/37/13 17/36/13
f 18/42/13 42/19/13 26/27/13
f 27/17/13 20/35/13 28/18/13
f 30/20/14 24/34/14 31/21/14
f 33/23/15 22/33/15 34/24/15
f 36/26/16 18/42/16 26/27/16
f 32/29/17 21/41/17 35/30/17
f 27/17/18 18/42/18 36/26/18
f 37/32/18 36/26/18 22/33/18
f 30/20/18 37/32/18 33/23/18
f 20/35/18 27/17/18 37/32/18
f 38/31/17 35/30/17 17/36/17
f 29/38/17 38/31/17 25/37/17
f 23/40/17 32/29/17 38/31/17
f 39/28/16 26/27/16 17/36/16
f 34/24/16 39/28/16 35/30/16
f 22/33/16 36/26/16 39/28/16
f 40/25/15 34/24/15 21/41/15
f 31/21/15 40/25/15 32/29/15
f 24/34/15 33/23/15 40/25/15
f 41/22/14 31/21/14 23/40/14
f 28/18/14 41/22/14 29/38/14
f 20/35/14 30/20/14 41/22/14
f 42/19/13 28/18/13 19/39/13
f 26/27/13 42/19/13 25/37/13
f 18/42/13 27/17/13 42/19/13
o Cube.004
v -8.367270 -0.209881 13.723239
v -8.367270 0.181584 13.723239
v -8.367270 -0.209881 -13.719035
v -8.367270 0.181584 -13.719035
v 9.444292 -0.209881 13.723239
v 9.444292 0.181584 13.723239
v 9.444292 -0.209881 -13.719035
v 9.444292 0.181584 -13.719035
vt -0.9463 -0.9242
vt -0.9297 1.8331
vt -0.9297 -0.8954
vt -0.9463 1.8533
vt 2.0800 1.8331
vt 2.1173 1.8533
vt 2.0800 -0.8954
vt 2.1173 -0.9242
vn -1.0000 0.0000 0.0000
vn 0.0000 0.0000 -1.0000
vn 1.0000 0.0000 0.0000
vn 0.0000 0.0000 1.0000
vn 0.0000 -1.0000 0.0000
vn 0.0000 1.0000 0.0000
usemtl None_spanishtilefloor.bmp
s off
f 44/43/19 45/44/19 43/45/19
f 46/46/20 49/47/20 45/44/20
f 50/48/21 47/49/21 49/47/21
f 48/50/22 43/45/22 47/49/22
f 49/47/23 43/45/23 45/44/23
f 46/46/24 48/50/24 50/48/24
f 44/43/19 46/46/19 45/44/19
f 46/46/20 50/48/20 49/47/20
f 50/48/21 48/50/21 47/49/21
f 48/50/22 44/43/22 43/45/22
f 49/47/23 47/49/23 43/45/23
f 46/46/24 44/43/24 48/50/24
o Cube.003
v 8.091119 -0.061590 -13.712812
v 9.526052 -0.061590 -13.712813
v 9.526052 -0.061590 -12.929454
v 8.091119 -0.061590 -12.929455
v 8.091120 9.326185 -13.712813
v 9.526052 9.326185 -13.712812
v 9.526052 9.326185 -12.929454
v 8.091119 9.326185 -12.929455
vt 0.1667 0.6667
vt 0.0000 1.0000
vt 0.0000 0.6667
vt 0.3333 0.6667
vt 0.1667 0.3333
vt 0.3333 0.3333
vt 0.1667 0.3333
vt 0.3333 0.0000
vt 0.3333 0.3333
vt 0.0000 0.0000
vt 0.1667 0.3333
vt 0.0000 0.3333
vt 0.3333 0.3333
vt 0.5000 0.0000
vt 0.5000 0.3333
vt 0.1667 0.3333
vt 0.0000 0.6667
vt 0.0000 0.3333
vt 0.1667 1.0000
vt 0.1667 0.6667
vt 0.1667 0.0000
vt 0.1667 0.0000
vt 0.3333 0.0000
vt 0.1667 0.6667
vn 0.0000 -1.0000 0.0000
vn 0.0000 1.0000 0.0000
vn -0.0000 -0.0000 -1.0000
vn 1.0000 0.0000 0.0000
vn -0.0000 0.0000 1.0000
vn -1.0000 0.0000 -0.0000
usemtl Material
s off
f 52/51/25 54/52/25 51/53/25
f 58/54/26 56/55/26 55/56/26
f 55/57/27 52/58/27 51/59/27
f 56/60/28 53/61/28 52/62/28
f 57/63/29 54/64/29 53/65/29
f 51/66/30 58/67/30 55/68/30
f 52/51/25 53/69/25 54/52/25
f 58/54/26 57/70/26 56/55/26
f 55/57/27 56/71/27 52/58/27
f 56/60/28 57/72/28 53/61/28
f 57/63/29 58/73/29 54/64/29
f 51/66/30 54/74/30 58/67/30
o Cube.002
v -8.359627 -0.045660 13.140717
v 9.560767 -0.045660 13.140716
v 9.560765 -0.045660 13.667263
v -8.359631 -0.045660 13.667264
v -8.359623 9.342115 13.140716
v 9.560773 9.342115 13.140716
v 9.560764 9.342115 13.667264
v -8.359628 9.342115 13.667264
vt 0.0000 0.6667
vt 0.1667 1.0000
vt 0.0000 1.0000
vt 0.3333 0.3333
vt 0.1667 0.6667
vt 0.1667 0.3333
vt 0.1667 0.3333
vt 0.3333 0.0000
vt 0.3333 0.3333
vt 0.0000 0.0000
vt 0.1667 0.3333
vt 0.0000 0.3333
vt 0.3333 0.3333
vt 0.5000 0.0000
vt 0.5000 0.3333
vt 0.1667 0.3333
vt 0.0000 0.6667
vt 0.0000 0.3333
vt 0.1667 0.6667
vt 0.3333 0.6667
vt 0.1667 0.0000
vt 0.1667 0.0000
vt 0.3333 0.0000
vt 0.1667 0.6667
vn 0.0000 -1.0000 0.0000
vn 0.0000 1.0000 -0.0000
vn -0.0000 -0.0000 -1.0000
vn 1.0000 -0.0000 0.0000
vn 0.0000 -0.0000 1.0000
vn -1.0000 0.0000 -0.0000
usemtl Material_purple.bmp
s off
f 59/75/31 61/76/31 62/77/31
f 63/78/32 65/79/32 64/80/32
f 63/81/33 60/82/33 59/83/33
f 64/84/34 61/85/34 60/86/34
f 65/87/35 62/88/35 61/89/35
f 59/90/36 66/91/36 63/92/36
f 59/75/31 60/93/31 61/76/31
f 63/78/32 66/94/32 65/79/32
f 63/81/33 64/95/33 60/82/33
f 64/84/34 65/96/34 61/85/34
f 65/87/35 66/97/35 62/88/35
f 59/90/36 62/98/36 66/91/36
o Cube.001
v 9.361919 -0.045115 -13.257122
v 9.361919 -0.045115 13.311784
v 8.578561 -0.045115 13.311782
v 8.578562 -0.045115 -13.257128
v 9.361920 9.342661 -13.257116
v 9.361919 9.342661 13.311791
v 8.578561 9.342661 13.311779
v 8.578562 9.342661 -13.257123
vt 0.1667 0.6667
vt 0.0000 1.0000
vt 0.0000 0.6667
vt 0.3333 0.3333
vt 0.1667 0.6667
vt 0.1667 0.3333
vt 0.1667 0.3333
vt 0.3333 0.0000
vt 0.3333 0.3333
vt 0.0000 0.0000
vt 0.1667 0.3333
vt 0.0000 0.3333
vt 0.3333 0.3333
vt 0.5000 0.0000
vt 0.5000 0.3333
vt 0.1667 0.3333
vt 0.0000 0.6667
vt 0.0000 0.3333
vt 0.1667 1.0000
vt 0.3333 0.6667
vt 0.1667 0.0000
vt 0.1667 0.0000
vt 0.3333 0.0000
vt 0.1667 0.6667
vn 0.0000 -1.0000 0.0000
vn 0.0000 1.0000 0.0000
vn 1.0000 -0.0000 0.0000
vn -0.0000 -0.0000 1.0000
vn -1.0000 0.0000 -0.0000
vn 0.0000 0.0000 -1.0000
usemtl Material_brown.bmp
s off
f 68/99/37 70/100/37 67/101/37
f 71/102/38 73/103/38 72/104/38
f 71/105/39 68/106/39 67/107/39
f 72/108/40 69/109/40 68/110/40
f 73/111/41 70/112/41 69/113/41
f 67/114/42 74/115/42 71/116/42
f 68/99/37 69/117/37 70/100/37
f 71/102/38 74/118/38 73/103/38
f 71/105/39 72/119/39 68/106/39
f 72/108/40 73/120/40 69/109/40
f 73/111/41 74/121/41 70/112/41
f 67/114/42 70/122/42 74/115/42
o Cube
v -7.376762 0.182596 -12.996457
v -7.376762 0.182596 -5.722623
v -8.160121 0.182596 -5.722624
v -8.160121 0.182596 -12.996458
v -7.376762 9.484175 -12.996455
v -7.376763 9.484175 -5.722621
v -8.160121 9.484175 -5.722624
v -8.160121 9.484175 -12.996457
vt 0.0464 0.4659
vt 0.9751 0.4689
vt 0.0194 0.4393
vt 0.0386 0.6380
vt 0.9807 0.6401
vt 0.9583 0.6555
vt 0.9533 0.4925
vt 0.0108 0.6208
vn 0.0000 -1.0000 0.0000
vn 0.0000 1.0000 0.0000
vn 1.0000 0.0000 0.0000
vn -0.0000 -0.0000 1.0000
vn -1.0000 0.0000 0.0000
vn 0.0000 0.0000 -1.0000
usemtl Material
s off
f 75/123/43 77/124/43 78/125/43
f 79/126/44 81/127/44 80/128/44
f 79/126/45 76/129/45 75/123/45
f 80/128/46 77/124/46 76/129/46
f 81/127/47 78/125/47 77/124/47
f 75/123/48 82/130/48 79/126/48
f 75/123/43 76/129/43 77/124/43
f 79/126/44 82/130/44 81/127/44
f 79/126/45 80/128/45 76/129/45
f 80/128/46 81/127/46 77/124/46
f 81/127/47 82/130/47 78/125/47
f 75/123/48 78/125/48 82/130/48
