# Blender v2.78 (sub 0) OBJ File: 'walls_spain.blend'
# www.blender.org
mtllib walls_spain_window.mtl
o Plane
v 31319.621094 -15180.268555 -45923.183594
v 31319.619141 3871.361816 -45923.183594
v -31352.462891 -15180.273438 -48067.652344
v -31352.462891 3871.357178 -48067.652344
vt 0.8530 0.9724
vt 0.1515 0.0197
vt 0.8529 0.0300
vt 0.1513 0.9765
vn -0.0342 -0.0000 0.9994
usemtl None
s off
f 2/1/1 3/2/1 1/3/1
f 2/1/1 4/4/1 3/2/1
o Cube.009
v -2.039044 6.983887 -13.712812
v 3.760294 6.983887 -13.712813
v 3.760293 6.983887 -12.929455
v -2.039045 6.983887 -12.929455
v -2.039043 9.160631 -13.712813
v 3.760296 9.160631 -13.712812
v 3.760293 9.160631 -12.929454
v -2.039044 9.160631 -12.929454
vt 0.0000 0.6667
vt 0.1667 1.0000
vt 0.0000 1.0000
vt 0.3333 0.3333
vt 0.1667 0.6667
vt 0.1667 0.3333
vt 0.1667 0.3333
vt 0.3333 0.0000
vt 0.3333 0.3333
vt 0.0000 0.0000
vt 0.1667 0.3333
vt 0.0000 0.3333
vt 0.3333 0.3333
vt 0.5000 0.0000
vt 0.5000 0.3333
vt 0.1667 0.3333
vt 0.0000 0.6667
vt 0.0000 0.3333
vt 0.1667 0.6667
vt 0.3333 0.6667
vt 0.1667 0.0000
vt 0.1667 0.0000
vt 0.3333 0.0000
vt 0.1667 0.6667
vn 0.0000 -1.0000 0.0000
vn 0.0000 1.0000 0.0000
vn -0.0000 -0.0000 -1.0000
vn 1.0000 -0.0000 0.0000
vn 0.0000 -0.0000 1.0000
vn -1.0000 0.0000 -0.0000
usemtl Material
s off
f 5/5/2 7/6/2 8/7/2
f 9/8/3 11/9/3 10/10/3
f 9/11/4 6/12/4 5/13/4
f 10/14/5 7/15/5 6/16/5
f 11/17/6 8/18/6 7/19/6
f 5/20/7 12/21/7 9/22/7
f 5/5/2 6/23/2 7/6/2
f 9/8/3 12/24/3 11/9/3
f 9/11/4 10/25/4 6/12/4
f 10/14/5 11/26/5 7/15/5
f 11/17/6 12/27/6 8/18/6
f 5/20/7 8/28/7 12/21/7
o Cube.008
v -2.039044 0.153779 -13.712812
v 3.760294 0.153779 -13.712813
v 3.760293 0.153779 -12.929455
v -2.039045 0.153779 -12.929455
v -2.039043 3.658965 -13.712813
v 3.760296 3.658965 -13.712812
v 3.760293 3.658965 -12.929454
v -2.039044 3.658965 -12.929454
vt 0.0000 0.6667
vt 0.1667 1.0000
vt 0.0000 1.0000
vt 0.3333 0.3333
vt 0.1667 0.6667
vt 0.1667 0.3333
vt 0.1667 0.3333
vt 0.3333 0.0000
vt 0.3333 0.3333
vt 0.0000 0.0000
vt 0.1667 0.3333
vt 0.0000 0.3333
vt 0.3333 0.3333
vt 0.5000 0.0000
vt 0.5000 0.3333
vt 0.1667 0.3333
vt 0.0000 0.6667
vt 0.0000 0.3333
vt 0.1667 0.6667
vt 0.3333 0.6667
vt 0.1667 0.0000
vt 0.1667 0.0000
vt 0.3333 0.0000
vt 0.1667 0.6667
vn 0.0000 -1.0000 0.0000
vn 0.0000 1.0000 0.0000
vn -0.0000 -0.0000 -1.0000
vn 1.0000 -0.0000 0.0000
vn 0.0000 -0.0000 1.0000
vn -1.0000 0.0000 -0.0000
usemtl Material
s off
f 13/29/8 15/30/8 16/31/8
f 17/32/9 19/33/9 18/34/9
f 17/35/10 14/36/10 13/37/10
f 18/38/11 15/39/11 14/40/11
f 19/41/12 16/42/12 15/43/12
f 13/44/13 20/45/13 17/46/13
f 13/29/8 14/47/8 15/30/8
f 17/32/9 20/48/9 19/33/9
f 17/35/10 18/49/10 14/36/10
f 18/38/11 19/50/11 15/39/11
f 19/41/12 20/51/12 16/42/12
f 13/44/13 16/52/13 20/45/13
o Cube.007
v -8.105146 -0.061590 -13.712812
v -1.621035 -0.061590 -13.712813
v -1.621035 -0.061590 -12.929455
v -8.105147 -0.061590 -12.929455
v -8.105145 9.326185 -13.712813
v -1.621033 9.326185 -13.712812
v -1.621036 9.326185 -12.929455
v -8.105146 9.326185 -12.929454
vt 0.7058 0.3941
vt 0.5319 0.3948
vt 0.6978 0.3950
vt 0.6892 0.5716
vt 0.5294 0.5677
vt 0.5309 0.5728
vt 0.5337 0.3939
vt 0.6824 0.5666
vn 0.0000 -1.0000 0.0000
vn 0.0000 1.0000 0.0000
vn -0.0000 -0.0000 -1.0000
vn 1.0000 -0.0000 0.0000
vn 0.0000 0.0000 1.0000
vn -1.0000 0.0000 -0.0000
usemtl Material
s off
f 21/53/14 23/54/14 24/55/14
f 25/56/15 27/57/15 26/58/15
f 25/56/16 22/59/16 21/53/16
f 26/58/17 23/54/17 22/59/17
f 27/57/18 24/55/18 23/54/18
f 21/53/19 28/60/19 25/56/19
f 21/53/14 22/59/14 23/54/14
f 25/56/15 28/60/15 27/57/15
f 25/56/16 26/58/16 22/59/16
f 26/58/17 27/57/17 23/54/17
f 27/57/18 28/60/18 24/55/18
f 21/53/19 24/55/19 28/60/19
o Cube.006
v -7.236033 0.182596 7.994237
v -7.236033 0.182596 13.307293
v -8.019392 0.182596 13.307292
v -8.019392 0.182596 7.994236
v -7.236033 9.484175 7.994238
v -7.236034 9.484175 13.307294
v -8.019392 9.484175 13.307291
v -8.019392 9.484175 7.994236
vt 0.0464 0.4659
vt 0.9751 0.4689
vt 0.0194 0.4393
vt 0.0386 0.6380
vt 0.9807 0.6401
vt 0.9583 0.6555
vt 0.9533 0.4925
vt 0.0108 0.6208
vn 0.0000 -1.0000 0.0000
vn 0.0000 1.0000 0.0000
vn 1.0000 0.0000 0.0000
vn 0.0000 -0.0000 1.0000
vn -1.0000 0.0000 0.0000
vn 0.0000 0.0000 -1.0000
usemtl Material
s off
f 29/61/20 31/62/20 32/63/20
f 33/64/21 35/65/21 34/66/21
f 33/64/22 30/67/22 29/61/22
f 34/66/23 31/62/23 30/67/23
f 35/65/24 32/63/24 31/62/24
f 29/61/25 36/68/25 33/64/25
f 29/61/20 30/67/20 31/62/20
f 33/64/21 36/68/21 35/65/21
f 33/64/22 34/66/22 30/67/22
f 34/66/23 35/65/23 31/62/23
f 35/65/24 36/68/24 32/63/24
f 29/61/25 32/63/25 36/68/25
o Cube.005
v -8.203980 9.155621 14.379124
v -8.203980 9.547085 14.379124
v -8.203980 9.155621 -14.326590
v -8.203980 9.547085 -14.326590
v 9.607581 9.155621 14.379124
v 9.607581 9.547085 14.379124
v 9.607581 9.155621 -14.326590
v 9.607581 9.547085 -14.326590
v -8.203980 9.155621 0.026267
v -8.203980 9.351353 14.379124
v -8.203980 9.547085 0.026267
v -8.203980 9.351353 -14.326590
v 0.701800 9.155621 -14.326590
v 0.701800 9.547085 -14.326590
v 9.607581 9.351353 -14.326590
v 9.607581 9.155621 0.026267
v 9.607581 9.547085 0.026267
v 9.607581 9.351353 14.379124
v 0.701800 9.155621 14.379124
v 0.701800 9.547085 14.379124
v 0.701800 9.547085 0.026267
v 0.701800 9.155621 0.026267
v 0.701800 9.351353 14.379124
v 9.607581 9.351353 0.026267
v 0.701800 9.351353 -14.326590
v -8.203980 9.351353 0.026267
vt 0.0171 0.5050
vt 0.0142 0.0654
vt 0.0142 0.5058
vt 0.4980 0.0690
vt 0.9858 0.0654
vt 0.5000 0.0654
vt 0.9790 0.5050
vt 0.9858 0.9462
vt 0.9858 0.5058
vt 0.4980 0.9410
vt 0.0142 0.9462
vt 0.5000 0.9462
vt 0.9926 0.5066
vt 0.5019 0.9514
vt 0.5019 0.5066
vt 0.4980 0.5050
vt 0.9790 0.9410
vt 0.9790 0.0690
vt 0.0171 0.0690
vt 0.0113 0.9514
vt 0.0113 0.5066
vt 0.5019 0.0618
vt 0.0113 0.0618
vt 0.9926 0.0618
vt 0.9926 0.9514
vt 0.0171 0.9410
vn -1.0000 0.0000 0.0000
vn 0.0000 0.0000 -1.0000
vn 1.0000 0.0000 0.0000
vn 0.0000 0.0000 1.0000
vn 0.0000 -1.0000 0.0000
vn 0.0000 1.0000 0.0000
usemtl None_kittendaisy.bmp
s off
f 47/69/26 48/70/26 62/71/26
f 50/72/27 51/73/27 61/74/27
f 53/75/28 54/76/28 60/77/28
f 56/78/29 46/79/29 59/80/29
f 52/81/30 55/82/30 58/83/30
f 47/69/31 56/78/31 57/84/31
f 57/84/31 42/85/31 53/75/31
f 50/72/31 53/75/31 44/86/31
f 40/87/31 57/84/31 50/72/31
f 58/83/30 37/88/30 45/89/30
f 49/90/30 45/89/30 39/91/30
f 43/92/30 58/83/30 49/90/30
f 59/80/29 37/88/29 55/82/29
f 54/76/29 55/82/29 41/93/29
f 42/85/29 59/80/29 54/76/29
f 60/77/28 41/93/28 52/81/28
f 51/73/28 52/81/28 43/92/28
f 44/86/28 60/77/28 51/73/28
f 61/74/27 43/92/27 49/90/27
f 48/70/27 49/90/27 39/91/27
f 40/87/27 61/74/27 48/70/27
f 62/71/26 39/91/26 45/89/26
f 46/79/26 45/89/26 37/88/26
f 38/94/26 62/71/26 46/79/26
f 47/69/26 40/87/26 48/70/26
f 50/72/27 44/86/27 51/73/27
f 53/75/28 42/85/28 54/76/28
f 56/78/29 38/94/29 46/79/29
f 52/81/30 41/93/30 55/82/30
f 47/69/31 38/94/31 56/78/31
f 57/84/31 56/78/31 42/85/31
f 50/72/31 57/84/31 53/75/31
f 40/87/31 47/69/31 57/84/31
f 58/83/30 55/82/30 37/88/30
f 49/90/30 58/83/30 45/89/30
f 43/92/30 52/81/30 58/83/30
f 59/80/29 46/79/29 37/88/29
f 54/76/29 59/80/29 55/82/29
f 42/85/29 56/78/29 59/80/29
f 60/77/28 54/76/28 41/93/28
f 51/73/28 60/77/28 52/81/28
f 44/86/28 53/75/28 60/77/28
f 61/74/27 51/73/27 43/92/27
f 48/70/27 61/74/27 49/90/27
f 40/87/27 50/72/27 61/74/27
f 62/71/26 48/70/26 39/91/26
f 46/79/26 62/71/26 45/89/26
f 38/94/26 47/69/26 62/71/26
o Cube.004
v -8.367270 -0.209881 13.723239
v -8.367270 0.181584 13.723239
v -8.367270 -0.209881 -13.719035
v -8.367270 0.181584 -13.719035
v 9.444292 -0.209881 13.723239
v 9.444292 0.181584 13.723239
v 9.444292 -0.209881 -13.719035
v 9.444292 0.181584 -13.719035
vt -0.9463 -0.9242
vt -0.9297 1.8331
vt -0.9297 -0.8954
vt -0.9463 1.8533
vt 2.0800 1.8331
vt 2.1173 1.8533
vt 2.0800 -0.8954
vt 2.1173 -0.9242
vn -1.0000 0.0000 0.0000
vn 0.0000 0.0000 -1.0000
vn 1.0000 0.0000 0.0000
vn 0.0000 0.0000 1.0000
vn 0.0000 -1.0000 0.0000
vn 0.0000 1.0000 0.0000
usemtl None_spanishtilefloor.bmp
s off
f 64/95/32 65/96/32 63/97/32
f 66/98/33 69/99/33 65/96/33
f 70/100/34 67/101/34 69/99/34
f 68/102/35 63/97/35 67/101/35
f 69/99/36 63/97/36 65/96/36
f 66/98/37 68/102/37 70/100/37
f 64/95/32 66/98/32 65/96/32
f 66/98/33 70/100/33 69/99/33
f 70/100/34 68/102/34 67/101/34
f 68/102/35 64/95/35 63/97/35
f 69/99/36 67/101/36 63/97/36
f 66/98/37 64/95/37 68/102/37
o Cube.003
v 3.400118 -0.061590 -13.712812
v 9.199455 -0.061590 -13.712813
v 9.199455 -0.061590 -12.929455
v 3.400116 -0.061590 -12.929455
v 3.400119 9.326185 -13.712813
v 9.199457 9.326185 -13.712812
v 9.199455 9.326185 -12.929454
v 3.400117 9.326185 -12.929454
vt 0.1667 0.6667
vt 0.0000 1.0000
vt 0.0000 0.6667
vt 0.3333 0.3333
vt 0.1667 0.6667
vt 0.1667 0.3333
vt 0.1667 0.3333
vt 0.3333 0.0000
vt 0.3333 0.3333
vt 0.0000 0.0000
vt 0.1667 0.3333
vt 0.0000 0.3333
vt 0.3333 0.3333
vt 0.5000 0.0000
vt 0.5000 0.3333
vt 0.1667 0.3333
vt 0.0000 0.6667
vt 0.0000 0.3333
vt 0.1667 1.0000
vt 0.3333 0.6667
vt 0.1667 0.0000
vt 0.1667 0.0000
vt 0.3333 0.0000
vt 0.1667 0.6667
vn 0.0000 -1.0000 -0.0000
vn 0.0000 1.0000 0.0000
vn -0.0000 -0.0000 -1.0000
vn 1.0000 -0.0000 0.0000
vn 0.0000 -0.0000 1.0000
vn -1.0000 0.0000 -0.0000
usemtl Material
s off
f 72/103/38 74/104/38 71/105/38
f 75/106/39 77/107/39 76/108/39
f 75/109/40 72/110/40 71/111/40
f 76/112/41 73/113/41 72/114/41
f 77/115/42 74/116/42 73/117/42
f 71/118/43 78/119/43 75/120/43
f 72/103/38 73/121/38 74/104/38
f 75/106/39 78/122/39 77/107/39
f 75/109/40 76/123/40 72/110/40
f 76/112/41 77/124/41 73/113/41
f 77/115/42 78/125/42 74/116/42
f 71/118/43 74/126/43 78/119/43
o Cube.002
v -8.359627 -0.045660 13.140717
v 9.560767 -0.045660 13.140716
v 9.560765 -0.045660 13.667263
v -8.359631 -0.045660 13.667264
v -8.359623 9.342115 13.140716
v 9.560773 9.342115 13.140716
v 9.560764 9.342115 13.667264
v -8.359628 9.342115 13.667264
vt 0.0000 0.6667
vt 0.1667 1.0000
vt 0.0000 1.0000
vt 0.3333 0.3333
vt 0.1667 0.6667
vt 0.1667 0.3333
vt 0.1667 0.3333
vt 0.3333 0.0000
vt 0.3333 0.3333
vt 0.0000 0.0000
vt 0.1667 0.3333
vt 0.0000 0.3333
vt 0.3333 0.3333
vt 0.5000 0.0000
vt 0.5000 0.3333
vt 0.1667 0.3333
vt 0.0000 0.6667
vt 0.0000 0.3333
vt 0.1667 0.6667
vt 0.3333 0.6667
vt 0.1667 0.0000
vt 0.1667 0.0000
vt 0.3333 0.0000
vt 0.1667 0.6667
vn 0.0000 -1.0000 0.0000
vn 0.0000 1.0000 -0.0000
vn -0.0000 -0.0000 -1.0000
vn 1.0000 -0.0000 0.0000
vn 0.0000 -0.0000 1.0000
vn -1.0000 0.0000 -0.0000
usemtl Material_purple.bmp
s off
f 79/127/44 81/128/44 82/129/44
f 83/130/45 85/131/45 84/132/45
f 83/133/46 80/134/46 79/135/46
f 84/136/47 81/137/47 80/138/47
f 85/139/48 82/140/48 81/141/48
f 79/142/49 86/143/49 83/144/49
f 79/127/44 80/145/44 81/128/44
f 83/130/45 86/146/45 85/131/45
f 83/133/46 84/147/46 80/134/46
f 84/136/47 85/148/47 81/137/47
f 85/139/48 86/149/48 82/140/48
f 79/142/49 82/150/49 86/143/49
o Cube.001
v 9.361919 -0.045115 -13.257122
v 9.361919 -0.045115 13.311784
v 8.578561 -0.045115 13.311782
v 8.578562 -0.045115 -13.257128
v 9.361920 9.342661 -13.257116
v 9.361919 9.342661 13.311791
v 8.578561 9.342661 13.311779
v 8.578562 9.342661 -13.257123
vt 0.1667 0.6667
vt 0.0000 1.0000
vt 0.0000 0.6667
vt 0.3333 0.3333
vt 0.1667 0.6667
vt 0.1667 0.3333
vt 0.1667 0.3333
vt 0.3333 0.0000
vt 0.3333 0.3333
vt 0.0000 0.0000
vt 0.1667 0.3333
vt 0.0000 0.3333
vt 0.3333 0.3333
vt 0.5000 0.0000
vt 0.5000 0.3333
vt 0.1667 0.3333
vt 0.0000 0.6667
vt 0.0000 0.3333
vt 0.1667 1.0000
vt 0.3333 0.6667
vt 0.1667 0.0000
vt 0.1667 0.0000
vt 0.3333 0.0000
vt 0.1667 0.6667
vn 0.0000 -1.0000 0.0000
vn 0.0000 1.0000 0.0000
vn 1.0000 -0.0000 0.0000
vn -0.0000 -0.0000 1.0000
vn -1.0000 0.0000 -0.0000
vn 0.0000 0.0000 -1.0000
usemtl Material_brown.bmp
s off
f 88/151/50 90/152/50 87/153/50
f 91/154/51 93/155/51 92/156/51
f 91/157/52 88/158/52 87/159/52
f 92/160/53 89/161/53 88/162/53
f 93/163/54 90/164/54 89/165/54
f 87/166/55 94/167/55 91/168/55
f 88/151/50 89/169/50 90/152/50
f 91/154/51 94/170/51 93/155/51
f 91/157/52 92/171/52 88/158/52
f 92/160/53 93/172/53 89/161/53
f 93/163/54 94/173/54 90/164/54
f 87/166/55 90/174/55 94/167/55
o Cube
v -7.376762 0.182596 -13.434664
v -7.376762 0.182596 2.148882
v -8.160121 0.182596 2.148881
v -8.160121 0.182596 -13.434668
v -7.376762 9.484175 -13.434660
v -7.376763 9.484175 2.148887
v -8.160121 9.484175 2.148880
v -8.160121 9.484175 -13.434664
vt 0.0464 0.4659
vt 0.9751 0.4689
vt 0.0194 0.4393
vt 0.0386 0.6380
vt 0.9807 0.6401
vt 0.9583 0.6555
vt 0.9533 0.4925
vt 0.0108 0.6208
vn 0.0000 -1.0000 0.0000
vn 0.0000 1.0000 0.0000
vn 1.0000 0.0000 0.0000
vn -0.0000 -0.0000 1.0000
vn -1.0000 -0.0000 0.0000
vn 0.0000 0.0000 -1.0000
usemtl Material
s off
f 95/175/56 97/176/56 98/177/56
f 99/178/57 101/179/57 100/180/57
f 99/178/58 96/181/58 95/175/58
f 100/180/59 97/176/59 96/181/59
f 101/179/60 98/177/60 97/176/60
f 95/175/61 102/182/61 99/178/61
f 95/175/56 96/181/56 97/176/56
f 99/178/57 102/182/57 101/179/57
f 99/178/58 100/180/58 96/181/58
f 100/180/59 101/179/59 97/176/59
f 101/179/60 102/182/60 98/177/60
f 95/175/61 98/177/61 102/182/61
