# Blender v2.78 (sub 0) OBJ File: 'whiteboard.blend'
# www.blender.org
mtllib whiteboard.mtl
o Cube.004
v -0.223692 0.235145 -2.434901
v -0.223692 0.325422 -2.434901
v -0.178047 0.325422 -2.434901
v -0.178047 0.235145 -2.434901
v -0.223692 0.235144 2.358465
v -0.223692 0.325422 2.358465
v -0.178047 0.325422 2.358465
v -0.178047 0.235144 2.358465
v -0.223692 2.998891 -2.434901
v -0.223692 3.089168 -2.434901
v -0.178047 3.089168 -2.434901
v -0.178047 2.998891 -2.434901
v -0.223692 2.998891 2.358465
v -0.223692 3.089168 2.358465
v -0.178047 3.089168 2.358465
v -0.178047 2.998891 2.358465
v -0.223692 0.228147 -2.401906
v -0.223692 0.228147 -2.508860
v -0.178047 0.228147 -2.508860
v -0.178047 0.228147 -2.401906
v -0.223692 3.091043 -2.401906
v -0.223692 3.091043 -2.508860
v -0.178047 3.091043 -2.508860
v -0.178047 3.091043 -2.401906
v -0.223692 0.228147 2.464911
v -0.223692 0.228147 2.357957
v -0.178047 0.228147 2.357957
v -0.178047 0.228147 2.464911
v -0.223692 3.091043 2.464911
v -0.223692 3.091043 2.357957
v -0.178047 3.091043 2.357957
v -0.178047 3.091043 2.464911
vt 0.9096 0.4774
vt 0.9094 0.4790
vt 0.9095 0.4788
vt 0.9715 0.4792
vt 0.9712 0.4777
vt 0.9712 0.4791
vt 0.9094 0.4776
vt 0.9714 0.4778
vt 0.9101 0.4359
vt 0.9099 0.4371
vt 0.9100 0.4372
vt 0.9708 0.4369
vt 0.9705 0.4357
vt 0.9705 0.4370
vt 0.9099 0.4357
vt 0.9707 0.4356
vt 0.9100 0.4789
vt 0.9084 0.4791
vt 0.9098 0.4791
vt 0.9105 0.4358
vt 0.9090 0.4357
vt 0.9091 0.4358
vt 0.9086 0.4789
vt 0.9103 0.4357
vt 0.9712 0.4792
vt 0.9729 0.4793
vt 0.9726 0.4792
vt 0.9719 0.4357
vt 0.9707 0.4355
vt 0.9705 0.4357
vt 0.9715 0.4793
vt 0.9721 0.4355
vn 0.0000 0.0000 -1.0000
vn 0.0000 0.0000 1.0000
vn -1.0000 0.0000 -0.0000
vn 0.0000 1.0000 0.0000
vn 1.0000 0.0000 0.0000
vn 0.0000 -1.0000 -0.0000
usemtl Material
s off
f 2/1/1 4/2/1 1/3/1
f 8/4/2 6/5/2 5/6/2
f 5/6/3 2/1/3 1/3/3
f 6/5/4 3/7/4 2/1/4
f 7/8/5 4/2/5 3/7/5
f 1/3/6 8/4/6 5/6/6
f 10/9/1 12/10/1 9/11/1
f 16/12/2 14/13/2 13/14/2
f 13/14/3 10/9/3 9/11/3
f 14/13/4 11/15/4 10/9/4
f 15/16/5 12/10/5 11/15/5
f 9/11/6 16/12/6 13/14/6
f 17/17/6 19/18/6 20/19/6
f 21/20/4 23/21/4 22/22/4
f 21/20/3 18/23/3 17/17/3
f 22/22/1 19/18/1 18/23/1
f 23/21/5 20/19/5 19/18/5
f 17/17/2 24/24/2 21/20/2
f 26/25/6 28/26/6 25/27/6
f 29/28/4 31/29/4 30/30/4
f 29/28/3 26/25/3 25/27/3
f 30/30/1 27/31/1 26/25/1
f 31/29/5 28/26/5 27/31/5
f 25/27/2 32/32/2 29/28/2
f 2/1/1 3/7/1 4/2/1
f 8/4/2 7/8/2 6/5/2
f 5/6/3 6/5/3 2/1/3
f 6/5/4 7/8/4 3/7/4
f 7/8/5 8/4/5 4/2/5
f 1/3/6 4/2/6 8/4/6
f 10/9/1 11/15/1 12/10/1
f 16/12/2 15/16/2 14/13/2
f 13/14/3 14/13/3 10/9/3
f 14/13/4 15/16/4 11/15/4
f 15/16/5 16/12/5 12/10/5
f 9/11/6 12/10/6 16/12/6
f 17/17/6 18/23/6 19/18/6
f 21/20/4 24/24/4 23/21/4
f 21/20/3 22/22/3 18/23/3
f 22/22/1 23/21/1 19/18/1
f 23/21/5 24/24/5 20/19/5
f 17/17/2 20/19/2 24/24/2
f 26/25/6 27/31/6 28/26/6
f 29/28/4 32/32/4 31/29/4
f 29/28/3 30/30/3 26/25/3
f 30/30/1 31/29/1 27/31/1
f 31/29/5 32/32/5 28/26/5
f 25/27/2 28/26/2 32/32/2
o Plane
v -0.236821 3.032270 2.318039
v -0.236821 0.301491 2.326551
v -0.236821 3.017514 -2.415837
v -0.236821 0.286735 -2.407325
vt 0.0101 0.4265
vt 0.9957 0.9910
vt 0.0119 0.9941
vt 0.9940 0.4235
vn 1.0000 -0.0000 0.0000
usemtl None
s off
f 34/33/7 35/34/7 33/35/7
f 34/33/7 36/36/7 35/34/7
o Cube
v -0.282736 0.231824 -2.458433
v -0.282736 0.231824 2.458433
v -0.237091 0.231824 2.458433
v -0.237091 0.231824 -2.458434
v -0.282736 3.087182 -2.458432
v -0.282736 3.087182 2.458435
v -0.237091 3.087182 2.458432
v -0.237091 3.087182 -2.458433
vt 0.9097 0.7020
vt 0.9230 0.7153
vt 0.9097 0.7153
vt 0.9364 0.6886
vt 0.9230 0.7020
vt 0.9230 0.6886
vt 0.9230 0.6886
vt 0.9364 0.6753
vt 0.9364 0.6886
vt 0.9097 0.6753
vt 0.9230 0.6886
vt 0.9097 0.6886
vt 0.9364 0.6886
vt 0.9497 0.6753
vt 0.9497 0.6886
vt 0.9230 0.6886
vt 0.9097 0.7020
vt 0.9097 0.6886
vt 0.9230 0.7020
vt 0.9364 0.7020
vt 0.9230 0.6753
vt 0.9230 0.6753
vt 0.9364 0.6753
vt 0.9230 0.7020
vn 0.0000 1.0000 0.0000
vn 0.0000 -1.0000 0.0000
vn 1.0000 0.0000 0.0000
vn -0.0000 0.0000 -1.0000
vn -1.0000 0.0000 0.0000
vn 0.0000 -0.0000 1.0000
vn -0.0001 -0.0000 -1.0000
usemtl Material
s off
f 37/37/8 39/38/8 40/39/8
f 41/40/9 43/41/9 42/42/9
f 41/43/10 38/44/10 37/45/10
f 42/46/11 39/47/11 38/48/11
f 43/49/12 40/50/12 39/51/12
f 37/52/13 44/53/13 41/54/13
f 37/37/8 38/55/8 39/38/8
f 41/40/9 44/56/9 43/41/9
f 41/43/10 42/57/10 38/44/10
f 42/46/14 43/58/14 39/47/14
f 43/49/12 44/59/12 40/50/12
f 37/52/13 40/60/13 44/53/13
